<?xml version="1.0" standalone="no"?>
<!DOCTYPE svg PUBLIC "-//W3C//DTD SVG 20010904//EN"
 "http://www.w3.org/TR/2001/REC-SVG-20010904/DTD/svg10.dtd">
<svg version="1.0" xmlns="http://www.w3.org/2000/svg"
 width="260.000000pt" height="260.000000pt" viewBox="0 0 260.000000 260.000000"
 preserveAspectRatio="xMidYMid meet">
<metadata>
Created by potrace 1.11, written by Peter Selinger 2001-2013
</metadata>
<g transform="translate(0.000000,260.000000) scale(0.100000,-0.100000)"
fill="#000000" stroke="none">
<path d="M1105 2484 c-88 -16 -200 -47 -255 -71 -70 -31 -182 -88 -205 -105
-70 -52 -168 -132 -197 -164 -80 -85 -130 -144 -122 -144 3 0 -1 -7 -8 -15
-23 -25 -33 -39 -46 -65 -7 -14 -20 -38 -30 -55 -10 -16 -28 -55 -41 -85 -12
-30 -26 -64 -31 -75 -18 -38 -42 -137 -55 -223 -14 -86 -13 -311 0 -381 29
-149 78 -280 153 -409 62 -106 81 -130 182 -233 166 -168 341 -268 573 -326
140 -35 364 -39 522 -8 44 9 137 35 160 45 11 5 45 19 75 31 127 52 274 154
381 265 73 75 179 218 179 240 0 8 3 14 8 14 4 0 13 15 21 33 8 17 24 55 37
82 23 52 60 169 69 220 20 113 24 176 21 297 -3 76 -7 142 -11 147 -3 6 -8 26
-10 44 -13 103 -98 303 -182 431 -60 91 -228 258 -318 318 -127 84 -316 165
-425 182 -19 3 -46 8 -60 12 -54 13 -306 11 -385 -2z"/>
</g>
</svg>
