<?xml version="1.0" encoding="utf-8"?>
<!-- Generator: Adobe Illustrator 19.0.0, SVG Export Plug-In . SVG Version: 6.00 Build 0)  -->
<svg version="1.1" id="Layer_1" xmlns="http://www.w3.org/2000/svg" xmlns:xlink="http://www.w3.org/1999/xlink" x="0px" y="0px"
	 width="32px" height="32px" viewBox="0 0 32 32" style="enable-background:new 0 0 32 32;" xml:space="preserve">
<style type="text/css">
	.st0{fill:#231F20;}
	.st1{fill:#FFFFFF;}
</style>
<g>
	<path id="XMLID_31_" class="st0" d="M32,16c0-8.8-7.2-16-16-16S0,7.2,0,16c0,8.8,7.2,16,16,16S32,24.8,32,16"/>
	<path class="st1" d="M18.4,12h1.1c-0.1-0.6-0.2-1.1-0.4-1.6l-0.9,0.5l-0.9-1.5l0.9-0.5C17.8,8.4,17.4,8,17,7.6l-0.5,0.9l-1.5-0.9
		l0.5-0.9c-0.5-0.2-1.1-0.4-1.6-0.4v1.1h-1.8V6.3c-0.6,0.1-1.1,0.2-1.6,0.4L11,7.7L9.5,8.6L9,7.6C8.5,8,8.1,8.4,7.8,8.8l0.9,0.5
		l-0.9,1.5l-0.9-0.5c-0.2,0.5-0.4,1.1-0.4,1.6h1.1v1.8H6.5c0.1,0.6,0.2,1.1,0.4,1.6l0.9-0.5l0.9,1.5l-0.9,0.5
		C8.1,17.3,8.5,17.7,9,18l0.5-0.9L11,18l-0.5,0.9c0.5,0.2,1.1,0.4,1.6,0.4v-1.1h1.8v1.1c0.6-0.1,1.1-0.2,1.6-0.4L14.9,18l1.5-0.9
		L17,18c0.4-0.3,0.8-0.7,1.2-1.2l-0.9-0.5l0.9-1.5l0.9,0.5c0.2-0.5,0.4-1.1,0.4-1.6h-1.1V12z M13,16.1c-1.8,0-3.3-1.5-3.3-3.3
		c0-1.8,1.5-3.3,3.3-3.3c1.8,0,3.3,1.5,3.3,3.3C16.3,14.7,14.8,16.1,13,16.1"/>
	<path class="st1" d="M22.8,21.2h0.6c0-0.3-0.1-0.7-0.3-1l-0.6,0.3l-0.5-0.9l0.6-0.3c-0.2-0.3-0.4-0.5-0.7-0.7l-0.3,0.6l-0.9-0.5
		l0.3-0.6c-0.3-0.1-0.6-0.2-1-0.3v0.6H19v-0.6c-0.3,0-0.7,0.1-1,0.3l0.3,0.6l-0.9,0.5l-0.3-0.6c-0.3,0.2-0.5,0.4-0.7,0.7l0.6,0.3
		l-0.5,0.9l-0.6-0.3c-0.1,0.3-0.2,0.6-0.3,1h0.6v1.1h-0.6c0,0.3,0.1,0.7,0.3,1l0.6-0.3l0.5,0.9l-0.6,0.3c0.2,0.3,0.4,0.5,0.7,0.7
		l0.3-0.6l0.9,0.5l-0.3,0.6c0.3,0.1,0.6,0.2,1,0.3V25h1.1v0.6c0.3,0,0.7-0.1,1-0.3l-0.3-0.6l0.9-0.5l0.3,0.6
		c0.3-0.2,0.5-0.4,0.7-0.7l-0.6-0.3l0.5-0.9l0.6,0.3c0.1-0.3,0.2-0.6,0.3-1h-0.6V21.2z M19.6,23.7c-1.1,0-2-0.9-2-2c0-1.1,0.9-2,2-2
		c1.1,0,2,0.9,2,2C21.5,22.9,20.6,23.7,19.6,23.7"/>
</g>
</svg>
