<?xml version="1.0" encoding="utf-8"?>
<!-- Generator: Adobe Illustrator 19.0.0, SVG Export Plug-In . SVG Version: 6.00 Build 0)  -->
<svg version="1.1" id="Layer_1" xmlns="http://www.w3.org/2000/svg" xmlns:xlink="http://www.w3.org/1999/xlink" x="0px" y="0px"
	 width="32px" height="32px" viewBox="0 0 32 32" style="enable-background:new 0 0 32 32;" xml:space="preserve">
<style type="text/css">
	.st0{fill:#231F20;}
	.st1{fill:#FFFFFF;}
</style>
<g>
	<path class="st0" d="M32,16c0-8.8-7.2-16-16-16S0,7.2,0,16c0,8.8,7.2,16,16,16S32,24.8,32,16"/>
	<path class="st1" d="M7.5,16.3H16h8.6c0.1,0,0.1,0,0.1-0.1v-3.6c0-0.1,0-0.2,0-0.3c-0.1-0.4-0.3-0.7-0.6-0.9
		c-0.3-0.2-0.6-0.3-1-0.3c-1.1,0-2.2,0-3.3,0c-0.1,0-0.1,0-0.1-0.1V9.5c0,0,0-0.1,0-0.1c-0.1-0.4-0.5-0.8-0.9-0.8
		c-1.9,0-3.7,0-5.6,0c-0.3,0-0.6,0.1-0.8,0.4c-0.1,0.2-0.2,0.3-0.2,0.5c0,0.5,0,1,0,1.5c0,0.1,0,0.1-0.1,0.1c-1.1,0-2.2,0-3.3,0
		c-0.1,0-0.2,0-0.4,0c-0.3,0.1-0.6,0.2-0.9,0.5c-0.2,0.3-0.4,0.6-0.4,1C7.4,13.8,7.4,15,7.5,16.3C7.4,16.3,7.4,16.3,7.5,16.3
		 M13.5,9.9C13.5,9.8,13.5,9.8,13.5,9.9c1.7-0.1,3.3-0.1,4.9-0.1c0,0,0.1,0,0.1,0.1c0,0.4,0,0.7,0,1.1c0,0.1,0,0.1-0.1,0.1H16h-2.4
		c-0.1,0-0.1,0-0.1-0.1V9.9z"/>
	<path class="st1" d="M24.6,17.3C24.6,17.2,24.6,17.2,24.6,17.3l-6.4-0.1c-0.1,0-0.1,0-0.1,0.1v1.4c0,0,0,0.1,0,0.1
		c0,0.3-0.3,0.5-0.6,0.5c-1,0-2,0-3.1,0c0,0-0.1,0-0.1,0c-0.3-0.1-0.5-0.3-0.5-0.6c0-0.5,0-1,0-1.5c0-0.1,0-0.1-0.1-0.1H7.4
		c-0.1,0-0.1,0-0.1,0.1v4.6c0,0.2,0,0.3,0.1,0.4c0.2,0.6,0.7,1.1,1.5,1.1c2.4,0,4.7,0,7.1,0c2.4,0,4.7,0,7.1,0c0.2,0,0.4,0,0.6-0.1
		c0.5-0.2,1-0.7,1-1.5C24.6,20.3,24.6,18.8,24.6,17.3"/>
	<path class="st1" d="M14.8,17.2C14.8,17.2,14.8,17.2,14.8,17.2l-0.1,1.2c0,0.1,0,0.1,0.1,0.1H16c0.4,0,0.8,0,1.2,0
		c0.1,0,0.1,0,0.1-0.1v-1.1c0-0.1,0-0.1-0.1-0.1H14.8z"/>
</g>
</svg>
